PathFileType	4	(X/Y/Z)	/Users/niels/Desktop/University/Third Semester/Perception and Action/Exam/Gymnastics Motion Tracking/Code for Gym Tracking/Analyzed Data/Webcam_Backflip/id19_4_trajectory_Sports2D/id19_4_trajectory_Sports2D_px_person00.trc
DataRate	CameraRate	NumFrames	NumMarkers	Units	OrigDataRate	OrigDataStartFrame	OrigNumFrames
29.714285714285715	29.714285714285715	11	22	m	29.714285714285715	65	105
Frame#	Time	Hip			RHip			RKnee			RAnkle			RBigToe			RSmallToe			RHeel			LHip			LKnee			LAnkle			LBigToe			LSmallToe			LHeel			Neck			Head			Nose			RShoulder			RElbow			RWrist			LShoulder			LElbow			LWrist		
		X1	Y1	Z1	X2	Y2	Z2	X3	Y3	Z3	X4	Y4	Z4	X5	Y5	Z5	X6	Y6	Z6	X7	Y7	Z7	X8	Y8	Z8	X9	Y9	Z9	X10	Y10	Z10	X11	Y11	Z11	X12	Y12	Z12	X13	Y13	Z13	X14	Y14	Z14	X15	Y15	Z15	X16	Y16	Z16	X17	Y17	Z17	X18	Y18	Z18	X19	Y19	Z19	X20	Y20	Z20	X21	Y21	Z21	X22	Y22	Z22
65	2.1875	0.7877657863416234	-0.8246813469855007	0.0	0.776864495440096	-0.825658027264466	0.0	0.8347045672183585	-0.9375857568870697	0.0	0.783731726510258	-1.0532007843236284	0.0	0.8299443126346103	-1.0759079247242929	0.0	0.8192317863811652	-1.0880162720720867	0.0	0.7664238204936358	-1.0596852426614822	0.0	0.8051160321301795	-0.8266531444068838	0.0	0.8493595800403656	-0.9276979769510186	0.0	0.789965634338432	-1.038668347430535	0.0	0.8949980670482113	-0.9967477530854888	0.0	0.8088551552429389	-1.031511679908197	0.0	0.7670865938833376	-1.0394537932911343	0.0	0.8907220822456635	-0.6878940210214236	0.0	0.9637731399177248	-0.6477773910865918	0.0	0.9426424118246101	-0.6874136539111768	0.0	0.8717151638307247	-0.6919874127587968	0.0	0.9397349654513634	-0.6984245715191326	0.0	1.0091696519536846	-0.6603286465100012	0.0	0.8888992508254626	-0.6858885517147779	0.0	0.9720086178587541	-0.6771305627009049	0.0	1.0406167612467994	-0.6454171927567083	0.0
66	2.2211538461538463	0.7837566079621126	-0.825332139516064	0.0	0.7710322422636572	-0.8266247188942422	0.0	0.844938549473424	-0.922125501799107	0.0	0.784078774493812	-1.03276833496042	0.0	0.8290079260084011	-1.053850554263296	0.0	0.8174492295530394	-1.0635463615200074	0.0	0.7663702258976071	-1.0392106927498999	0.0	0.8051094552116541	-0.8281643793526087	0.0	0.8625225827622722	-0.9139182935841708	0.0	0.7924782094390057	-1.0174034064673385	0.0	0.8683120975353552	-1.009053150393034	0.0	0.81668652281325	-1.0198571216084322	0.0	0.7690744390366584	-1.020845066835487	0.0	0.8852346325526212	-0.6896034397244911	0.0	0.9533266384582079	-0.6503357796315178	0.0	0.9358289803219166	-0.6916002483945343	0.0	0.8629110673736753	-0.6887475620666467	0.0	0.9208764406545735	-0.6908595253802378	0.0	0.9831842811546881	-0.6484685155565874	0.0	0.8860788616586234	-0.6936386276586052	0.0	0.9675626297296913	-0.6753103809480087	0.0	1.0333921007455167	-0.6400980928057689	0.0
67	2.254807692307692	0.7811314830576112	-0.8145699064717935	0.0	0.7672100155813288	-0.816851828104066	0.0	0.8556260746557204	-0.8961826745318704	0.0	0.7859048296686613	-1.0027351323761446	0.0	0.8292742882149483	-1.0242088942979468	0.0	0.8164370837848048	-1.0308282222973764	0.0	0.7681807056098238	-1.0098688722459683	0.0	0.8055380025531784	-0.8177457961976866	0.0	0.8758008039722708	-0.8890046842731493	0.0	0.7961306985877117	-0.9853122460641353	0.0	0.8504506464511059	-1.000012376525107	0.0	0.8241522324866569	-0.9963120421722705	0.0	0.7730540174506391	-0.9915710376299808	0.0	0.8823131684940323	-0.6820270723475597	0.0	0.947114853818906	-0.6453826128268983	0.0	0.93113731910611	-0.6888832101935315	0.0	0.8557131793317135	-0.6774189945941728	0.0	0.8988159887986605	-0.6805736656620248	0.0	0.9545881622581237	-0.640467983591146	0.0	0.8860612797608337	-0.6905609669314692	0.0	0.9630643327161578	-0.6702672819704062	0.0	1.0279599903342322	-0.6376176911849379	0.0
68	2.2884615384615383	0.7801813749689547	-0.7962196477274797	0.0	0.7654819130147074	-0.7998344854756488	0.0	0.8643436836024778	-0.86740039720757	0.0	0.7884258702411524	-0.971460722276715	0.0	0.8305485204904579	-0.9949987072730552	0.0	0.8164515984801035	-0.998826844836056	0.0	0.7708868036696638	-0.9795749173858699	0.0	0.8062457714482837	-0.7993452275229018	0.0	0.8873780166453809	-0.8600549061638292	0.0	0.8010441412949597	-0.9513504504180673	0.0	0.8417211546883114	-0.9794224613326035	0.0	0.8310413950589064	-0.9688646867214825	0.0	0.7790466933841794	-0.9599082433600168	0.0	0.8805077719970823	-0.6668308062964741	0.0	0.9439370359041342	-0.6335551902457868	0.0	0.9272386329290192	-0.6791045723158544	0.0	0.8498770797164364	-0.6597248482436535	0.0	0.8776101702796717	-0.6663902351516215	0.0	0.9284850923393889	-0.6316810094385624	0.0	0.8868556741267679	-0.678071050484272	0.0	0.9584885057936751	-0.6611371519466915	0.0	1.0236372441969817	-0.6346836083349643	0.0
69	2.3221153846153846	0.7810335086237753	-0.7743538062414538	0.0	0.7656120118950775	-0.7791972698650401	0.0	0.8693729199255176	-0.8424336194319605	0.0	0.7906380671890697	-0.9461290139533922	0.0	0.8322333899917734	-0.9719832473833443	0.0	0.8170926288841133	-0.9739706541796073	0.0	0.7732965939018281	-0.9553332628182652	0.0	0.8074762726840571	-0.777230620015928	0.0	0.8956213862018835	-0.8337190477071508	0.0	0.8069635090241883	-0.923688356005356	0.0	0.840689241664652	-0.9579777797176254	0.0	0.8378083073326252	-0.9454398072331007	0.0	0.7866248802036299	-0.9339354538991361	0.0	0.8785989128021171	-0.6465862675051167	0.0	0.942489511776018	-0.6161655606077495	0.0	0.9233612347447149	-0.6629521062700465	0.0	0.8449882734394255	-0.637923436916892	0.0	0.8602096059321589	-0.647531526599448	0.0	0.9071164243568056	-0.6178290702685898	0.0	0.8872619452666636	-0.6590829470667273	0.0	0.9541100987813135	-0.6476891873509295	0.0	1.0196735077023313	-0.6282207463733052	0.0
70	2.355769230769231	0.7835678383341508	-0.7525139448917403	0.0	0.7672063297155984	-0.7581010106520875	0.0	0.8701352343947122	-0.8249785060003794	0.0	0.7919167353801501	-0.9304914730009709	0.0	0.8337250488740916	-0.9576425569379594	0.0	0.8177469590460575	-0.9588852099719873	0.0	0.7746669855279341	-0.9408942034032175	0.0	0.8095628628662691	-0.7551244074369322	0.0	0.8995783640834943	-0.8142813568934	0.0	0.8133082290405471	-0.9067998074784124	0.0	0.8448300608517623	-0.9427626067059967	0.0	0.8447314361785759	-0.9307872459313046	0.0	0.7949656610330214	-0.9183629929282053	0.0	0.875819666472963	-0.6241104314305892	0.0	0.9415205525873049	-0.5947151777961796	0.0	0.9193171632547078	-0.6419295205501035	0.0	0.8406196785681904	-0.6144741113079648	0.0	0.847885976586731	-0.6241274454592726	0.0	0.8903832453267875	-0.5966398940445506	0.0	0.8867915621558838	-0.6367666177461584	0.0	0.9503013145800312	-0.6304101606112417	0.0	1.0156598090216424	-0.616335936523047	0.0
71	2.3894230769230766	0.7874169959279936	-0.7331133727742805	0.0	0.7698816945712362	-0.7387235109565617	0.0	0.8670273145797915	-0.8154040713536005	0.0	0.7922048821314753	-0.9244614577210972	0.0	0.8347091493374937	-0.9514513448019024	0.0	0.8180327700711288	-0.9527578920318119	0.0	0.7749166004986542	-0.9361578433402145	0.0	0.8125950930997775	-0.7355270725544462	0.0	0.899176850447184	-0.8030546145434254	0.0	0.8192124333012251	-0.9008208832359954	0.0	0.8512444675005529	-0.935929100113207	0.0	0.8513834798116352	-0.9255515952197383	0.0	0.8028100421781114	-0.9135668208564998	0.0	0.871942824296796	-0.6019468183894173	0.0	0.9401098322100276	-0.570820919384052	0.0	0.9152385880026974	-0.6180724919503507	0.0	0.836510036246836	-0.5916864998240674	0.0	0.840325338310217	-0.597066585751473	0.0	0.8770783522359106	-0.5684691926981005	0.0	0.8855259066827598	-0.6138481893059694	0.0	0.947368728581174	-0.6103667788766839	0.0	1.0114362673734376	-0.5987473141304871	0.0
72	2.423076923076923	0.7920803224875294	-0.7172725581921437	0.0	0.7733600510392373	-0.7222006957236582	0.0	0.8610848557460743	-0.8118369204551826	0.0	0.791748726808323	-0.9254033749513895	0.0	0.8351784836589359	-0.9511510456942226	0.0	0.817831273403764	-0.9529090580610687	0.0	0.774368755181592	-0.9383912767338476	0.0	0.8163313438141276	-0.7195528536997496	0.0	0.8951021126567987	-0.7989393862558333	0.0	0.8237403159281615	-0.9029963441094072	0.0	0.8574692682438932	-0.9361185928481742	0.0	0.8569462522775743	-0.927531999739523	0.0	0.8088584849986119	-0.9169111985906527	0.0	0.867316752549448	-0.581860108425701	0.0	0.9377208148409885	-0.5463019129385175	0.0	0.9113809297779027	-0.5935811814931448	0.0	0.8325968845625976	-0.571291975413821	0.0	0.836119031434033	-0.5678030791934557	0.0	0.8658775067881954	-0.535799239823647	0.0	0.8838830445503275	-0.5923369336208455	0.0	0.9454292344686951	-0.5889390916345885	0.0	1.0069418587183636	-0.5766379772013507	0.0
73	2.456730769230769	0.7971118263623368	-0.7050852079132166	0.0	0.7774552081299577	-0.7089100659407548	0.0	0.853626578157514	-0.8117042997956311	0.0	0.7908125713406895	-0.9299576743904873	0.0	0.835286602726225	-0.9541034871293064	0.0	0.8171210560165845	-0.9564463586717163	0.0	0.7733936681174969	-0.9441231981058755	0.0	0.8203912599669417	-0.7072469057242193	0.0	0.8885323325169338	-0.7995168436055771	0.0	0.8263534395551424	-0.9096218885349855	0.0	0.8620258298962229	-0.9405560819222057	0.0	0.860848559862516	-0.9335221671503423	0.0	0.8124804011659139	-0.9246706151164762	0.0	0.8626438829050695	-0.5646053024589366	0.0	0.9341314655987148	-0.5229612018915761	0.0	0.9079735605244261	-0.5703529244663251	0.0	0.8288557368745831	-0.5541684424771046	0.0	0.8334544700296616	-0.5382630652398344	0.0	0.8558279962473335	-0.501995591854059	0.0	0.8822558829681545	-0.573430979590757	0.0	0.9442714599826771	-0.5675637118890622	0.0	1.0020864387178998	-0.552133299171316	0.0
74	2.4903846153846154	0.8021792817939037	-0.6960481038872888	0.0	0.7819825044027607	-0.6987116466904062	0.0	0.8459183851035162	-0.8128252197915842	0.0	0.7896379390354296	-0.9353155492895671	0.0	0.8351900026963263	-0.9581388833411651	0.0	0.8159654536090206	-0.9611220906997324	0.0	0.7722746267552731	-0.9504951547469728	0.0	0.824445149061033	-0.6980414960318314	0.0	0.8808120511599917	-0.8021996088246615	0.0	0.8272090817604679	-0.9173886915505121	0.0	0.864495785085422	-0.9465015098274185	0.0	0.8631031838946019	-0.9406075321143067	0.0	0.8139645723340172	-0.9334453887486556	0.0	0.8584887630121607	-0.5501968623096652	0.0	0.9294852826879906	-0.5021534902478401	0.0	0.9050807585109232	-0.5495440080386305	0.0	0.8251731981030939	-0.5404568223307755	0.0	0.8307829537764706	-0.5106142435694194	0.0	0.8465102257576437	-0.470155022962292	0.0	0.8807632679539412	-0.557583096144668	0.0	0.9433857463100689	-0.547554943787837	0.0	0.9967857147501001	-0.5276438662806162	0.0
75	2.5240384615384612	0.8070057875144339	-0.6895049279075915	0.0	0.786696633425551	-0.6912082160085147	0.0	0.8389105868369868	-0.8138266881145143	0.0	0.788475290984928	-0.939729968141628	0.0	0.8349928510426158	-0.9618797879440776	0.0	0.8146219303259179	-0.965468433138202	0.0	0.7712514751368081	-0.9557504781650491	0.0	0.8282566807556717	-0.6912434727097109	0.0	0.8730714778875744	-0.8051171272517995	0.0	0.826931866378486	-0.9241293355237832	0.0	0.8652132492950071	-0.9519984341999774	0.0	0.8641116244589857	-0.9468308837203142	0.0	0.8141044524867976	-0.9409975856932584	0.0	0.8549998268377886	-0.5384001038341085	0.0	0.9242071632392178	-0.484649925765842	0.0	0.9025352772979182	-0.5316425829169067	0.0	0.8214700856628414	-0.5299614717274164	0.0	0.8271485390732064	-0.4870471416030848	0.0	0.8379115849670721	-0.44265296619047095	0.0	0.8792836367659186	-0.544819951435175	0.0	0.9421920561018695	-0.5300356529170019	0.0	0.9910828263765862	-0.5052986516291607	0.0
